<?xml version="1.0" encoding="iso-8859-1"?>
<!-- Generator: Adobe Illustrator 19.0.0, SVG Export Plug-In . SVG Version: 6.00 Build 0)  -->
<svg version="1.1" id="Capa_1" xmlns="http://www.w3.org/2000/svg" xmlns:xlink="http://www.w3.org/1999/xlink" x="0px" y="0px"
	 viewBox="0 0 436.909 436.909" style="enable-background:new 0 0 436.909 436.909;" xml:space="preserve">
<g>
	<g>
		<g>
			<path d="M319.827,319.824c-27.086,27.08-63.085,41.991-101.373,41.991c-77.454,0-141.747-62.979-143.326-140.395
				c-0.08-3.768-3.087-6.818-6.967-6.685c-3.767,0.077-6.76,3.195-6.687,6.965c1.732,84.789,72.153,153.769,156.979,153.769
				c41.933,0,81.367-16.331,111.027-45.986c2.666-2.661,6.987-2.662,9.653,0.002c1.287,1.289,2,3.004,2,4.826
				c0,1.821-0.713,3.536-2,4.826c-32.241,32.234-75.093,49.985-120.68,49.985c-92.5,0-169.047-75.221-170.639-167.678
				c-0.067-3.77-3.253-6.903-6.946-6.709c-3.767,0.065-6.774,3.173-6.707,6.941c1.719,99.859,84.393,181.1,184.293,181.1
				c49.234,0,95.52-19.171,130.333-53.985c3.867-3.867,6.001-9.011,6.001-14.481c0-5.472-2.133-10.614-6.001-14.481
				C340.8,311.848,327.814,311.838,319.827,319.824z"/>
			<path d="M218.455,34.135c-49.234,0-95.52,19.173-130.333,53.985c-3.867,3.867-6.001,9.011-6.001,14.483
				c0,5.47,2.133,10.612,6.001,14.479c7.98,7.979,20.966,7.989,28.96,0.003c27.086-27.078,63.085-41.991,101.373-41.991
				c77.454,0,141.747,62.974,143.326,140.384c0.08,3.722,3.12,6.687,6.827,6.687c0.046,0,0.094,0,0.14-0.002
				c3.767-0.077,6.76-3.195,6.687-6.965c-1.732-84.782-72.153-153.757-156.979-153.757c-41.933,0-81.36,16.333-111.027,45.988
				c-2.666,2.661-6.987,2.662-9.653-0.002c-1.287-1.289-2-3.004-2-4.825c0-1.823,0.713-3.538,2-4.828
				c32.241-32.236,75.093-49.987,120.68-49.987c92.5,0,169.047,75.221,170.639,167.68c0.067,3.731,3.106,6.711,6.827,6.711
				c0.041,0,0.08,0,0.12-0.003c3.767-0.065,6.774-3.173,6.707-6.941C401.029,115.375,318.354,34.135,218.455,34.135z"/>
		</g>
	</g>
</g>
<g>
	<g>
		<path d="M108.508,215.401l-47.787-95.573c-2.319-4.623-9.893-4.623-12.213,0L0.721,215.401c-1.06,2.118-0.945,4.63,0.3,6.642
			s3.439,3.238,5.806,3.238h95.573c2.367,0,4.56-1.225,5.806-3.238C109.455,220.032,109.568,217.518,108.508,215.401z
			 M17.875,211.628l36.739-73.482l36.741,73.482H17.875z"/>
	</g>
</g>
<g>
	<g>
		<path d="M435.887,214.865c-1.246-2.012-3.439-3.238-5.806-3.238h-95.573c-2.365,0-4.56,1.224-5.806,3.238
			c-1.248,2.012-1.36,4.526-0.3,6.642l47.787,95.573c1.161,2.313,3.519,3.773,6.106,3.773c2.587,0,4.946-1.461,6.106-3.773
			l47.787-95.573C437.248,219.39,437.133,216.878,435.887,214.865z M382.295,298.763l-36.739-73.482h73.479L382.295,298.763z"/>
	</g>
</g>
<g>
</g>
<g>
</g>
<g>
</g>
<g>
</g>
<g>
</g>
<g>
</g>
<g>
</g>
<g>
</g>
<g>
</g>
<g>
</g>
<g>
</g>
<g>
</g>
<g>
</g>
<g>
</g>
<g>
</g>
</svg>
